<svg width="128" height="128" viewBox="0 0 128 128" fill="none" xmlns="http://www.w3.org/2000/svg">
<g clip-path="url(#clip0_1_2)">
<path fill-rule="evenodd" clip-rule="evenodd" d="M27 8C24.7909 8 23 9.79086 23 12V78C23 80.2091 21.2091 82 19 82H12C9.79086 82 8 83.7909 8 86V124C8 126.209 9.79086 128 12 128H23H56C58.2091 128 60 126.209 60 124V12C60 9.79086 58.2091 8 56 8H27Z" fill="#44D6AB"/>
<path fill-rule="evenodd" clip-rule="evenodd" d="M60 19C60 16.7909 58.2091 15 56 15H39.3448C37.1357 15 35.3448 16.7909 35.3448 19V102C35.3448 104.209 33.554 106 31.3448 106H12C9.79086 106 8 107.791 8 110V116C8 118.209 9.79086 120 12 120H35.3448H36.0172H56C58.2091 120 60 118.209 60 116V19Z" fill="#014746"/>
<path fill-rule="evenodd" clip-rule="evenodd" d="M30.5 15H53V81.5C53 85.177 52.224 88.818 50.7164 92.2151C49.2087 95.6123 46.999 98.699 44.2132 101.299C41.4274 103.899 38.1203 105.961 34.4805 107.369C30.8407 108.776 26.9397 109.5 23 109.5H8V92.5C8 90.2909 9.79086 88.5 12 88.5H23C23.9849 88.5 24.9602 88.3189 25.8701 87.9672C26.7801 87.6154 27.6069 87.0998 28.3033 86.4498C28.9997 85.7997 29.5522 85.0281 29.9291 84.1788C30.306 83.3295 30.5 82.4193 30.5 81.5V15Z" fill="#FEFAE9"/>
<path fill-rule="evenodd" clip-rule="evenodd" d="M82.5 54H83V54.0033C87.7544 54.0658 92.455 55.02 96.8506 56.8165C101.4 58.6759 105.534 61.4013 109.017 64.837C112.499 68.2728 115.261 72.3517 117.145 76.8407C119.03 81.3298 120 86.1411 120 91C120 95.8589 119.03 100.67 117.145 105.159C115.261 109.648 112.499 113.727 109.017 117.163C105.534 120.599 101.4 123.324 96.8506 125.184C92.455 126.98 87.7544 127.934 83 127.997V128H82.5H80H60H40V120H60V54H82.5Z" fill="#44D6AB"/>
<rect x="116" y="81" width="4" height="10" fill="#44D6AB"/>
<path d="M82.5 78C87.4246 78 92.3009 77.0947 96.8506 75.3358C101.4 73.5769 105.534 70.9988 109.017 67.7487C112.499 64.4987 115.261 60.6403 117.145 56.3939C119.03 52.1475 120 47.5963 120 43C120 38.4037 119.03 33.8525 117.145 29.6061C115.261 25.3597 112.499 21.5013 109.017 18.2513C105.534 15.0012 101.4 12.4231 96.8506 10.6642C92.3009 8.9053 87.4246 8 82.5 8V43V78Z" fill="#44D6AB"/>
<path fill-rule="evenodd" clip-rule="evenodd" d="M82.5 46H71C68.7909 46 67 47.7909 67 50V116C67 118.209 68.7909 120 71 120H82.5H82.9983C82.9993 120 83 119.999 83 119.998V119.998C83 119.997 83.0007 119.997 83.0016 119.997C87.7555 119.934 92.4555 118.98 96.8506 117.184C101.4 115.324 105.534 112.599 109.017 109.163C112.499 105.727 115.261 101.648 117.145 97.1593C119.03 92.6702 120 87.8589 120 83C120 78.1411 119.03 73.3298 117.145 68.8407C115.261 64.3517 112.499 60.2728 109.017 56.837C105.534 53.4013 101.4 50.6759 96.8506 48.8165C92.4555 47.0202 87.7555 46.0661 83.0016 46.0033C83.0007 46.0033 83 46.0026 83 46.0017V46.0017C83 46.0007 82.9993 46 82.9983 46H82.5Z" fill="#014746"/>
<path d="M60 12C60 9.79086 61.7909 8 64 8H83V46H60V12Z" fill="#44D6AB"/>
<path d="M53 12C53 9.79086 54.7909 8 57 8H76V15H53V12Z" fill="#44D6AB"/>
<path d="M60 44C60 41.7909 61.7909 40 64 40H67V120H60V44Z" fill="#44D6AB"/>
<path d="M75 71C75 68.7909 76.7909 67 79 67H104V93H75V71Z" fill="#44D6AB"/>
<path fill-rule="evenodd" clip-rule="evenodd" d="M80.0095 15H67V108.625H80.0095H86.5143C89.9312 108.625 93.3146 107.901 96.4713 106.494C99.6281 105.086 102.496 103.024 104.913 100.424C107.329 97.824 109.245 94.7373 110.553 91.3401C111.86 87.943 112.533 84.302 112.533 80.625C112.533 76.948 111.86 73.307 110.553 69.9099C109.407 66.9328 107.793 64.1941 105.786 61.8125C107.793 59.4309 109.407 56.6922 110.553 53.7151C111.86 50.318 112.533 46.677 112.533 43C112.533 39.323 111.86 35.682 110.553 32.2849C109.245 28.8877 107.329 25.8011 104.913 23.201C102.496 20.601 99.6281 18.5385 96.4713 17.1314C93.3146 15.7242 89.9312 15 86.5143 15H80.0095ZM86.5143 33.375H80.0095V52.625H86.5143L86.5143 52.6124C87.6873 52.6124 88.8488 52.3638 89.9325 51.8807C91.0163 51.3976 92.001 50.6896 92.8304 49.797C93.6598 48.9044 94.3178 47.8447 94.7667 46.6785C95.2156 45.5123 95.4466 44.2623 95.4466 43C95.4466 41.7377 95.2156 40.4877 94.7667 39.3215C94.3178 38.1553 93.6598 37.0956 92.8304 36.203C92.001 35.3104 91.0163 34.6024 89.9325 34.1193C88.8488 33.6362 87.6873 33.3876 86.5143 33.3876L86.5143 33.375ZM86.5143 71H80.0095V90.25H86.5143L86.5143 90.2374C87.6873 90.2374 88.8488 89.9888 89.9325 89.5057C91.0163 89.0226 92.001 88.3146 92.8304 87.422C93.6598 86.5294 94.3178 85.4697 94.7667 84.3035C95.2156 83.1373 95.4466 81.8873 95.4466 80.625C95.4466 79.3627 95.2156 78.1127 94.7667 76.9465C94.3178 75.7803 93.6598 74.7206 92.8304 73.828C92.001 72.9354 91.0163 72.2274 89.9325 71.7443C88.8488 71.2612 87.6873 71.0126 86.5143 71.0126L86.5143 71Z" fill="#FEFAE9"/>
</g>
<defs>
<clipPath id="clip0_1_2">
<rect width="128" height="128" fill="white"/>
</clipPath>
</defs>
</svg>
